# File created by Blade
# Date/Time:  Tue Jan 27 19:14:14 2015
#---------------------------------------------------------
:version 1.10
:name HOM
:units
  mass 1.0
  length 1.000000
  angle deg
:documentation
     Acclaim Skeleton File
:root
   axis xyz
   order TX TY TZ RX RY RZ
   position 0.000000 0.000000 0.000000
   orientation 0 0 0
:bonedata
   begin
      id 1
      name Spine_dum
      direction 0.000000 1.000000 0.000000
      length 6.116652
      axis 0.0 0.0 0.0 xyz
   end
   begin
      id 2
      name LeftUpLeg_dum
      direction 1.000000 0.000000 0.000000
      length 4.711765
      axis 0.0 0.0 0.0 xyz
   end
   begin
      id 3
      name RightUpLeg_dum
      direction -1.000000 0.000000 0.000000
      length 4.711765
      axis 0.0 0.0 0.0 xyz
   end
   begin
      id 4
      name Spine
      direction 0.000000 1.000000 0.000000
      length 0.000000
      axis 0.0 0.0 0.0 xyz
      dof rx ry rz
   end
   begin
      id 5
      name Spine_dum1
      direction 0.000000 1.000000 0.000000
      length 15.225563
      axis 0.0 0.0 0.0 xyz
   end
   begin
      id 6
      name Spine_dum2
      direction 0.000000 1.000000 0.000000
      length 8.977654
      axis 0.0 0.0 0.0 xyz
   end
   begin
      id 7
      name Spine_dum3
      direction 0.000000 1.000000 0.000000
      length 8.977654
      axis 0.0 0.0 0.0 xyz
   end
   begin
      id 8
      name Head
      direction 0.000000 1.000000 0.000000
      length 4.527550
      axis 0.0 0.0 0.0 xyz
      dof rx ry rz
   end
   begin
      id 9
      name LeftShoulder
      direction 1.000000 0.000000 0.000000
      length 7.110130
      axis 0.0 0.0 -90.0 xyz
      dof rx ry rz
   end
   begin
      id 10
      name LeftArm
      direction 1.000000 0.000000 0.000000
      length 10.398341
      axis 0.0 0.0 -90.0 xyz
      dof rx ry rz
   end
   begin
      id 11
      name LeftForeArm
      direction 1.000000 0.000000 0.000000
      length 8.888997
      axis 0.0 0.0 -90.0 xyz
      dof ry rz rx
   end
   begin
      id 12
      name LeftHand
      direction 0.000000 0.000000 0.000000
      length 0.000000
      axis 0.0 0.0 -90.0 xyz
      dof rx ry rz
   end
   begin
      id 13
      name LeftHand_dum1
      direction 0.000000 0.000000 0.000000
      length 0.000000
      axis 0.0 0.0 -90.0 xyz
   end
   begin
      id 14
      name LeftHand_dum2
      direction 1.000000 0.000000 0.000000
      length 3.937000
      axis 0.0 0.0 -90.0 xyz
   end
   begin
      id 15
      name LeftHandThumb1
      direction 0.000000 0.000000 1.000000
      length 3.937000
      axis 0.0 0.0 -90.0 xyz
      dof rx rz ry
   end
   begin
      id 16
      name RightShoulder
      direction -1.000000 0.000000 0.000000
      length 7.110130
      axis 0.0 0.0 90.0 xyz
      dof rx ry rz
   end
   begin
      id 17
      name RightArm
      direction -1.000000 0.000000 0.000000
      length 10.398341
      axis 0.0 0.0 90.0 xyz
      dof rx ry rz
   end
   begin
      id 18
      name RightForeArm
      direction -1.000000 0.000000 0.000000
      length 8.888997
      axis 0.0 0.0 90.0 xyz
      dof ry rz rx
   end
   begin
      id 19
      name RightHand
      direction 0.000000 0.000000 0.000000
      length 0.000000
      axis 0.0 0.0 90.0 xyz
      dof rx ry rz
   end
   begin
      id 20
      name RightHand_dum1
      direction 0.000000 0.000000 0.000000
      length 0.000000
      axis 0.0 0.0 90.0 xyz
   end
   begin
      id 21
      name RightHand_dum2
      direction -1.000000 0.000000 0.000000
      length 3.937000
      axis 0.0 0.0 90.0 xyz
   end
   begin
      id 22
      name RightHandThumb1
      direction 0.000000 0.000000 1.000000
      length 3.937000
      axis 0.0 0.0 90.0 xyz
      dof rx rz ry
   end
   begin
      id 23
      name LeftUpLeg
      direction 0.000000 -1.000000 0.000000
      length 15.510451
      axis 0.0 0.0 0.0 xyz
      dof rx ry rz
   end
   begin
      id 24
      name LeftLeg
      direction 0.000000 -1.000000 0.000000
      length 14.858061
      axis 0.0 0.0 0.0 xyz
      dof rx ry rz
   end
   begin
      id 25
      name LeftFoot
      direction 0.000000 -0.258819 0.965926
      length 5.128852
      axis 15.0 0.0 0.0 xyz
      dof rx ry rz
   end
   begin
      id 26
      name LeftToeBase
      direction 0.000000 0.000000 1.000000
      length 2.952750
      axis 0.0 0.0 0.0 xyz
      dof rx ry rz
   end
   begin
      id 27
      name RightUpLeg
      direction 0.000000 -1.000000 0.000000
      length 15.510451
      axis 0.0 0.0 0.0 xyz
      dof rx ry rz
   end
   begin
      id 28
      name RightLeg
      direction 0.000000 -1.000000 0.000000
      length 14.858061
      axis 0.0 0.0 0.0 xyz
      dof rx ry rz
   end
   begin
      id 29
      name RightFoot
      direction 0.000000 -0.258819 0.965926
      length 5.128852
      axis 15.0 0.0 0.0 xyz
      dof rx ry rz
   end
   begin
      id 30
      name RightToeBase
      direction 0.000000 0.000000 1.000000
      length 2.952750
      axis 0.0 0.0 0.0 xyz
      dof rx ry rz
   end
:hierarchy
   begin
      root Spine_dum LeftUpLeg_dum RightUpLeg_dum
      Spine_dum Spine
      LeftUpLeg_dum LeftUpLeg
      RightUpLeg_dum RightUpLeg
      Spine Spine_dum1 Spine_dum2 Spine_dum3
      Spine_dum1 Head
      Spine_dum2 LeftShoulder
      Spine_dum3 RightShoulder
      LeftShoulder LeftArm
      LeftArm LeftForeArm
      LeftForeArm LeftHand
      LeftHand LeftHand_dum1 LeftHand_dum2
      LeftHand_dum1 LeftHandThumb1
      RightShoulder RightArm
      RightArm RightForeArm
      RightForeArm RightHand
      RightHand RightHand_dum1 RightHand_dum2
      RightHand_dum1 RightHandThumb1
      LeftUpLeg LeftLeg
      LeftLeg LeftFoot
      LeftFoot LeftToeBase
      RightUpLeg RightLeg
      RightLeg RightFoot
      RightFoot RightToeBase
   end

# File created by Blade
# Date/Time:  Tue Jan 27 19:14:06 2015
# Frame Rate: 120.000 fps
#------------------------------------------------------
:FULLY-SPECIFIED
:DEGREES
1549
root 4.401141 32.430002 0.738672 -2.911738 17.698406 2.015175
Spine -2.203893 13.857319 -3.238670
Head 16.422230 -23.520967 -10.309846
LeftShoulder -5.356693 -9.105502 22.451408
LeftArm -5.749988 37.127424 -103.369021
LeftForeArm 3.475618 -0.000000 10.664817
LeftHand 10.021507 -0.000000 -7.099202
LeftHandThumb1 -26.253704 0.000000 33.147579
RightShoulder -14.232065 24.098032 -59.649643
RightArm 102.368542 53.620637 123.786219
RightForeArm 46.378226 0.000000 146.728528
RightHand 33.070238 -0.000000 -0.285785
RightHandThumb1 -24.326973 -0.000000 -32.862282
LeftUpLeg 7.259992 -12.188381 -2.666255
LeftLeg 2.340921 -0.000000 -0.000000
LeftFoot -12.656534 6.626228 -21.457775
LeftToeBase 19.466232 -0.000000 -0.000000
RightUpLeg 12.279173 -6.276025 1.983002
RightLeg -2.922628 -0.000000 0.000000
RightFoot -15.282976 -22.422320 17.954341
RightToeBase 11.651500 -0.000000 -0.000000
1550
root 4.402193 32.430442 0.741371 -2.897087 17.695306 2.034213
Spine -2.222038 13.848921 -3.265598
Head 16.388617 -23.509259 -10.289565
LeftShoulder -5.356991 -9.127876 22.438234
LeftArm -5.750030 37.171548 -103.368713
LeftForeArm 3.533822 -0.000000 10.642045
LeftHand 10.020697 -0.000000 -7.086722
LeftHandThumb1 -26.253704 0.000000 33.147579
RightShoulder -14.214550 24.076291 -59.652671
RightArm 102.273759 53.700810 123.649747
RightForeArm 46.333569 0.000000 146.661697
RightHand 33.135152 -0.000000 -0.587181
RightHandThumb1 -24.326973 -0.000000 -32.862282
LeftUpLeg 7.302803 -12.371753 -2.713423
LeftLeg 2.260401 -0.000000 -0.000000
LeftFoot -12.679535 6.802537 -21.693580
LeftToeBase 19.423052 -0.000000 -0.000000
RightUpLeg 12.285798 -6.295425 1.957363
RightLeg -2.940781 -0.000000 0.000000
RightFoot -15.296447 -22.379725 17.994463
RightToeBase 11.712154 -0.000000 -0.000000
1551
root 4.399987 32.431240 0.742721 -2.889386 17.673764 2.037957
Spine -2.227140 13.865885 -3.279183
Head 16.343839 -23.508597 -10.267131
LeftShoulder -5.354917 -9.144685 22.421755
LeftArm -5.726568 37.194593 -103.347616
LeftForeArm 3.541276 -0.000000 10.624493
LeftHand 10.036681 -0.000000 -7.004078
LeftHandThumb1 -26.253704 0.000000 33.147579
RightShoulder -14.225841 24.017134 -59.655778
RightArm 102.244289 53.686033 123.634356
RightForeArm 46.256185 -0.000000 146.572091
RightHand 33.116261 0.000000 -0.640828
RightHandThumb1 -24.326973 -0.000000 -32.862282
LeftUpLeg 7.313317 -12.374314 -2.712885
LeftLeg 2.235629 -0.000000 -0.000000
LeftFoot -12.679170 6.841100 -21.528504
LeftToeBase 19.510929 -0.000000 -0.000000
RightUpLeg 12.272065 -6.294868 1.956308
RightLeg -2.928657 -0.000000 0.000000
RightFoot -15.292223 -22.365576 17.983903
RightToeBase 11.721779 -0.000000 -0.000000
1552
root 4.399750 32.431174 0.744408 -2.874900 17.679289 2.036799
Spine -2.243852 13.860824 -3.282825
Head 16.313740 -23.495802 -10.258251
LeftShoulder -5.350189 -9.155328 22.412913
LeftArm -5.714123 37.188742 -103.345271
LeftForeArm 3.536873 0.000000 10.619126
LeftHand 10.053461 -0.000000 -6.989729
LeftHandThumb1 -26.253704 0.000000 33.147579
RightShoulder -14.218389 23.928840 -59.642209
RightArm 102.304058 53.687370 123.683620
RightForeArm 46.180064 -0.000000 146.453532
RightHand 33.135394 -0.000000 -0.752105
RightHandThumb1 -24.326973 -0.000000 -32.862282
LeftUpLeg 7.300767 -12.370583 -2.707491
LeftLeg 2.230579 -0.000000 -0.000000
LeftFoot -12.661861 6.823402 -21.687843
LeftToeBase 19.372339 -0.000000 -0.000000
RightUpLeg 12.266790 -6.303370 1.958418
RightLeg -2.943541 -0.000000 0.000000
RightFoot -15.274785 -22.361581 17.984214
RightToeBase 11.710744 -0.000000 -0.000000
1553
root 4.399921 32.431662 0.748271 -2.885987 17.652840 2.035960
Spine -2.238776 13.865819 -3.283292
Head 16.293720 -23.469309 -10.244180
LeftShoulder -5.358141 -9.131638 22.414627
LeftArm -5.682230 37.166775 -103.338247
LeftForeArm 3.523892 -0.000000 10.625085
LeftHand 10.043795 -0.000000 -6.889477
LeftHandThumb1 -26.253704 0.000000 33.147579
RightShoulder -14.206302 23.901526 -59.638557
RightArm 102.302785 53.689029 123.719117
RightForeArm 46.038064 -0.000000 146.335974
RightHand 33.085805 -0.000000 -0.800077
RightHandThumb1 -24.326973 -0.000000 -32.862282
LeftUpLeg 7.319546 -12.373181 -2.712558
LeftLeg 2.243867 -0.000000 -0.000000
LeftFoot -12.691746 6.872226 -21.502484
LeftToeBase 19.468474 -0.000000 -0.000000
RightUpLeg 12.279068 -6.303502 1.954450
RightLeg -2.937788 -0.000000 0.000000
RightFoot -15.248389 -22.338255 17.947147
RightToeBase 11.665067 -0.000000 -0.000000
1554
root 4.396982 32.430882 0.751367 -2.900001 17.632319 2.010016
Spine -2.229581 13.860063 -3.259635
Head 16.261502 -23.422470 -10.230430
LeftShoulder -5.361053 -9.126724 22.424600
LeftArm -5.681094 37.091237 -103.345819
LeftForeArm 3.536102 0.000000 10.655413
LeftHand 10.069584 -0.000000 -6.797431
LeftHandThumb1 -26.253704 0.000000 33.147579
RightShoulder -14.193819 23.909678 -59.626000
RightArm 102.268415 53.704837 123.697485
RightForeArm 45.928326 -0.000000 146.222686
RightHand 33.041720 -0.000000 -0.958665
RightHandThumb1 -24.326973 -0.000000 -32.862282
LeftUpLeg 7.298256 -12.221468 -2.663543
LeftLeg 2.308084 -0.000000 -0.000000
LeftFoot -12.668489 6.681716 -21.610284
LeftToeBase 19.262332 -0.000000 -0.000000
RightUpLeg 12.285549 -6.269298 1.987975
RightLeg -2.932706 -0.000000 0.000000
RightFoot -15.257119 -22.342612 17.965980
RightToeBase 11.663568 -0.000000 -0.000000
1555
root 4.395289 32.431377 0.752583 -2.894621 17.628059 2.009034
Spine -2.231861 13.845727 -3.266226
Head 16.238588 -23.395216 -10.216546
LeftShoulder -5.365106 -9.123256 22.427441
LeftArm -5.676569 37.050971 -103.342832
LeftForeArm 3.528221 -0.000000 10.687767
LeftHand 10.063434 -0.000000 -6.753242
LeftHandThumb1 -26.253704 0.000000 33.147579
RightShoulder -14.184010 23.892329 -59.602034
RightArm 102.317068 53.689032 123.763517
RightForeArm 46.017595 -0.000000 146.087130
RightHand 33.047986 -0.000000 -0.661955
RightHandThumb1 -24.326973 -0.000000 -32.862282
LeftUpLeg 7.281923 -12.214006 -2.657519
LeftLeg 2.333146 -0.000000 -0.000000
LeftFoot -12.672194 6.674108 -21.608248
LeftToeBase 19.305232 -0.000000 -0.000000
RightUpLeg 12.281552 -6.258505 1.993506
RightLeg -2.936383 -0.000000 0.000000
RightFoot -15.263888 -22.346439 17.998005
RightToeBase 11.747605 -0.000000 -0.000000
1556
root 4.394745 32.431799 0.754492 -2.897806 17.599630 2.009723
Spine -2.225086 13.853477 -3.265160
Head 16.221749 -23.344397 -10.206724
LeftShoulder -5.364151 -9.127466 22.426359
LeftArm -5.694905 36.977348 -103.339856
LeftForeArm 3.584683 -0.000000 10.741008
LeftHand 10.042117 0.000000 -6.805686
LeftHandThumb1 -26.253704 0.000000 33.147579
RightShoulder -14.177612 23.858972 -59.575673
RightArm 102.322605 53.655777 123.755201
RightForeArm 45.981172 -0.000000 146.007788
RightHand 33.050259 -0.000000 -0.798556
RightHandThumb1 -24.326973 -0.000000 -32.862282
LeftUpLeg 7.292746 -12.222481 -2.660921
LeftLeg 2.312144 -0.000000 -0.000000
LeftFoot -12.708073 6.770001 -21.547330
LeftToeBase 19.548426 -0.000000 -0.000000
RightUpLeg 12.271871 -6.249853 1.993086
RightLeg -2.911386 -0.000000 0.000000
RightFoot -15.260286 -22.333799 17.971669
RightToeBase 11.702994 -0.000000 -0.000000
1557
root 4.395407 32.431774 0.759216 -2.926784 17.544571 2.001556
Spine -2.200299 13.886899 -3.245700
Head 16.205017 -23.308954 -10.194260
LeftShoulder -5.368654 -9.117114 22.422492
LeftArm -5.695879 36.935709 -103.338249
LeftForeArm 3.591061 -0.000000 10.783795
LeftHand 10.048372 -0.000000 -6.860831
LeftHandThumb1 -26.253704 0.000000 33.147579
RightShoulder -14.145468 23.869879 -59.576339
RightArm 102.250659 53.720606 123.686129
RightForeArm 45.794951 -0.000000 145.963683
RightHand 33.002592 0.000000 -1.307015
RightHandThumb1 -24.326973 -0.000000 -32.862282
LeftUpLeg 7.336827 -12.253575 -2.669675
LeftLeg 2.330013 -0.000000 -0.000000
LeftFoot -12.752641 6.804159 -21.537009
LeftToeBase 19.471432 -0.000000 -0.000000
RightUpLeg 12.299382 -6.219200 1.997653
RightLeg -2.907045 -0.000000 0.000000
RightFoot -15.259547 -22.307724 17.995222
RightToeBase 11.733868 -0.000000 -0.000000
1558
root 4.395162 32.431633 0.761127 -2.936231 17.520760 2.001573
Spine -2.183504 13.869927 -3.239646
Head 16.175676 -23.248605 -10.182531
LeftShoulder -5.396911 -9.116786 22.420344
LeftArm -5.713209 36.944212 -103.346963
LeftForeArm 3.568031 -0.000000 10.824920
LeftHand 10.105737 0.000000 -6.878969
LeftHandThumb1 -26.253704 0.000000 33.147579
RightShoulder -14.134986 23.834730 -59.566334
RightArm 102.302644 53.655813 123.782127
RightForeArm 45.827232 -0.000000 145.886684
RightHand 33.036747 -0.000000 -1.357154
RightHandThumb1 -24.326973 -0.000000 -32.862282
LeftUpLeg 7.349641 -12.289089 -2.681328
LeftLeg 2.349061 -0.000000 -0.000000
LeftFoot -12.765904 6.821082 -21.686861
LeftToeBase 19.261524 -0.000000 -0.000000
RightUpLeg 12.304378 -6.222458 1.993183
RightLeg -2.897315 -0.000000 0.000000
RightFoot -15.261571 -22.276953 18.006276
RightToeBase 11.737314 -0.000000 -0.000000
1559
root 4.392786 32.432045 0.762324 -2.942245 17.489080 1.998581
Spine -2.176961 13.864996 -3.246237
Head 16.166612 -23.187514 -10.141533
LeftShoulder -5.400542 -9.116715 22.419878
LeftArm -5.730939 36.946908 -103.351507
LeftForeArm 3.578709 -0.000000 10.875957
LeftHand 10.099059 0.000000 -6.909733
LeftHandThumb1 -26.253704 0.000000 33.147579
RightShoulder -14.111232 23.868727 -59.571110
RightArm 102.252268 53.705135 123.811228
RightForeArm 45.798243 -0.000000 145.846966
RightHand 32.977269 0.000000 -1.557235
RightHandThumb1 -24.326973 -0.000000 -32.862282
LeftUpLeg 7.359050 -12.279253 -2.677885
LeftLeg 2.345297 -0.000000 -0.000000
LeftFoot -12.801940 6.887420 -21.540419
LeftToeBase 19.497894 -0.000000 -0.000000
RightUpLeg 12.302537 -6.215309 1.999059
RightLeg -2.893161 -0.000000 0.000000
RightFoot -15.245327 -22.274695 17.971468
RightToeBase 11.728584 -0.000000 -0.000000
1560
root 4.401264 32.433439 0.757043 -2.910321 17.482193 2.051390
Spine -2.179043 13.836509 -3.269899
Head 16.149177 -23.105076 -10.161495
LeftShoulder -5.419754 -9.124809 22.371729
LeftArm -5.757631 36.958809 -103.353526
LeftForeArm 3.577076 -0.000000 10.929167
LeftHand 10.068340 -0.000000 -6.986445
LeftHandThumb1 -26.253704 0.000000 33.147579
RightShoulder -14.094638 23.771428 -59.598376
RightArm 102.441588 53.640756 124.115872
RightForeArm 45.681648 0.000000 145.795106
RightHand 32.977674 -0.000000 -1.741472
RightHandThumb1 -24.326973 -0.000000 -32.862282
LeftUpLeg 7.318898 -11.459853 -2.618976
LeftLeg 2.310087 -0.000000 -0.000000
LeftFoot -12.399328 6.173552 -21.368775
LeftToeBase 19.250342 -0.000000 -0.000000
RightUpLeg 12.274879 -6.270229 1.916543
RightLeg -2.874994 -0.000000 0.000000
RightFoot -15.258719 -22.173860 17.997836
RightToeBase 11.665424 -0.000000 -0.000000
